<?xml version="1.0" encoding="UTF-8" standalone="no"?>
<svg
   xmlns:dc="http://purl.org/dc/elements/1.1/"
   xmlns:cc="http://creativecommons.org/ns#"
   xmlns:rdf="http://www.w3.org/1999/02/22-rdf-syntax-ns#"
   xmlns:svg="http://www.w3.org/2000/svg"
   xmlns="http://www.w3.org/2000/svg"
   viewBox="0 0 640 640"
   height="640"
   width="640"
   xml:space="preserve"
   version="1.1"
   id="svg2"><metadata
     id="metadata8"><rdf:RDF><cc:Work
         rdf:about=""><dc:format>image/svg+xml</dc:format><dc:type
           rdf:resource="http://purl.org/dc/dcmitype/StillImage" /></cc:Work></rdf:RDF></metadata><defs
     id="defs6"><clipPath
       id="clipPath16"
       clipPathUnits="userSpaceOnUse"><path
         id="path18"
         d="m 503,155 24,0 0,24 -24,0 0,-24 z" /></clipPath></defs><g
     transform="scale(0.3,0.3)"
     id="g10"><g
       transform="matrix(88.888894,0,0,88.888894,-44711.113,-13777.778)"
       id="g12"><g
         clip-path="url(#clipPath16)"
         id="g14"><path
           id="path20"
           style="fill:#000000;fill-opacity:1;fill-rule:evenodd;stroke:none"
           d="m 515.5,178 c 6.35126,0 11.5,-5.14873 11.5,-11.5 0,-6.35127 -5.14874,-11.5 -11.5,-11.5 -6.35129,0 -11.5,5.14873 -11.5,11.5 0,6.35127 5.14871,11.5 11.5,11.5 z m 0,-1 c 5.79901,0 10.5,-4.701 10.5,-10.5 0,-5.799 -4.70099,-10.5 -10.5,-10.5 -5.79898,0 -10.5,4.701 -10.5,10.5 0,5.799 4.70102,10.5 10.5,10.5 z m -6.5,-10 0,-1 6,0 0,-6 1,0 0,6 6,0 0,1 -6,0 0,6 -1,0 0,-6 -6,0 z" /></g></g></g></svg>